<svg width="12" height="13" viewBox="0 0 12 13" fill="none" xmlns="http://www.w3.org/2000/svg">
<path d="M9.53674e-07 3C1.54972e-06 4 0 4.38756 0 7C0 10.3137 2.68629 13 6 13C9.31371 13 12 10.3137 12 7C12 4.38756 12 5 12 3L8 3.5V7C8 8.10457 7.10457 9 6 9C4.89543 9 4 8.10457 4 7V3.5L9.53674e-07 3Z" fill="currentColor"/>
<path d="M0 1C0 0.447715 0.447715 0 1 0H3C3.55228 0 4 0.447715 4 1V2.5L0 2V1Z" fill="currentColor"/>
<path d="M8 1C8 0.447715 8.44772 0 9 0H11C11.5523 0 12 0.447715 12 1V2L8 2.5V1Z" fill="currentColor"/>
</svg>
