<svg width="19" height="13" viewBox="0 0 19 13" fill="none" xmlns="http://www.w3.org/2000/svg">
<path fill-rule="evenodd" clip-rule="evenodd" d="M14.1 3.77946C14.1 3.77946 12.56 8.52879 12.44 8.92874C12.44 8.52879 11.27 0 11.27 0C8.64 0 7.27 1.82974 6.49 3.77946C6.49 3.77946 4.61 8.53879 4.49 8.93873C4.49 8.56879 4.2 3.82946 4.2 3.82946C3.98088 1.66918 2.17158 0.0195014 0 0L2.16 12.9282C4.92 12.9282 6.39 11.0884 7.16 9.1487C7.16 9.1487 8.81 4.9493 8.88 4.75933C8.88 4.9393 10.07 12.9382 10.07 12.9382C12.3513 12.9557 14.3869 11.5088 15.12 9.34868L19 0C16.27 0 14.84 1.82974 14.1 3.77946Z" fill="currentColor"/>
</svg>
